<svg xmlns="http://www.w3.org/2000/svg" viewBox="0 0 500 500"><path fill="#ebebeb" d="M0 382.4h500v.25H0zm238.4-44.6H45.3a5.71 5.71 0 01-5.71-5.71V60.66A5.71 5.71 0 0145.3 55h193.1a5.71 5.71 0 015.71 5.71v271.38a5.71 5.71 0 01-5.71 5.71zM45.3 55.2a5.47 5.47 0 00-5.46 5.46v271.43a5.47 5.47 0 005.46 5.46h193.1a5.47 5.47 0 005.46-5.46V60.66a5.47 5.47 0 00-5.46-5.46zm409.4 282.6H261.6a5.71 5.71 0 01-5.71-5.71V60.66A5.71 5.71 0 01261.6 55h193.1a5.71 5.71 0 015.71 5.71v271.38a5.71 5.71 0 01-5.71 5.71zM261.6 55.2a5.47 5.47 0 00-5.46 5.46v271.43a5.47 5.47 0 005.46 5.46h193.1a5.47 5.47 0 005.46-5.46V60.66a5.47 5.47 0 00-5.46-5.46z"/><path fill="#ebebeb" d="M0 382.4h500v.25H0zm416.78 16.09h33.12v.25h-33.12zm-94.25 2.72h8.69v.25h-8.69zm74.06-12h19.19v.25h-19.19zm-344.13 1.68h43.19v.25H52.46zm79.01 4.22h93.68v.25h-93.68z"/><circle cx="164.95" cy="88.11" r="15.45" transform="rotate(-44.15 164.961 88.105)" fill="#e0e0e0"/><circle cx="166.7" cy="88.73" r="15.45" transform="rotate(-25.32 166.703 88.747)" fill="#f0f0f0"/><path d="M177.59 92.63a11.57 11.57 0 11-7-14.79 11.57 11.57 0 017 14.79z" fill="#e6e6e6"/><path d="M172.32 91.7a3.46 3.46 0 00-1.26-1.7 3.14 3.14 0 002.61-2.12 2.92 2.92 0 00-.37-2.78 5.25 5.25 0 00-2.08-1.65l.32-.89-1.38-.49-.3.83-1.37-.49.29-.83-1.37-.5-.3.83-3-1.06-4.41 12.33 3 1.06-.31.88 1.38.49.31-.88 1.37.5-.31.87 1.38.49.32-.91a6.19 6.19 0 003.24.22 3 3 0 002.15-2 3.33 3.33 0 00.09-2.2zM166.2 84l2.8 1a3 3 0 011.47.93 1.43 1.43 0 01-.77 2.17 3 3 0 01-1.74-.2l-2.83-1zm2.28 9.46a3.34 3.34 0 01-1.83-.24L163.32 92l1.09-3 3.33 1.19c1.52.54 2.09 1.32 1.73 2.34a1.36 1.36 0 01-.99.93z" fill="#fff"/><path d="M242.53 96.09v4.62a13.77 13.77 0 017.84 3.25l3.26-3.27a18.33 18.33 0 00-11.1-4.6z" fill="#e6e6e6"/><path d="M240.3 128.27a13.83 13.83 0 01-12.67-12.66H223a18.42 18.42 0 0017.29 17.28z" fill="#f5f5f5"/><path d="M227.63 113.38a13.83 13.83 0 0112.67-12.67v-4.62a18.43 18.43 0 00-17.3 17.29z" fill="#e0e0e0"/><path d="M255.21 102.27l-3.27 3.27a13.81 13.81 0 01-9.41 22.73v4.62a18.43 18.43 0 0012.68-30.62z" fill="#ebebeb"/><path fill="#e6e6e6" d="M85.19 150.82l.43 10.27 24.62-6.63 12.19-15.16 13.71-5.15 1.36 3.63 10.4-11.19-15.66-5.03 1.55 4.11-13.68 4.94-11.76 15.51-23.16 4.7zm306.87 10.46a16.27 16.27 0 11-22.16-6.21 16.27 16.27 0 0122.16 6.21z"/><circle cx="379.57" cy="168.3" r="16.27" transform="rotate(-43.01 379.62 168.295)" fill="#f0f0f0"/><circle cx="379.57" cy="168.3" r="12.18" transform="rotate(-65.17 379.54 168.299)" fill="#e6e6e6"/><path d="M385.5 167.94c1.73 2.11 1 4.59-1.76 6.47l1 2-1.76 1-1-2a11.18 11.18 0 01-5.06 1l-.43-2.63a9.24 9.24 0 004.26-.75l-1.6-3c-2 .47-4.28.9-5.86-1-1.72-2.11-1-4.63 1.87-6.5l-1-2 1.76-1 1.06 2a10.2 10.2 0 014-.92l.53 2.58a7.94 7.94 0 00-3.3.65l1.67 3.15c1.91-.47 4.12-.88 5.62.95zm-7.72-.45l-1.36-2.57c-.86.74-1 1.55-.55 2.16s1.13.53 1.91.41zM383 170a1.78 1.78 0 00-1.8-.38l1.3 2.44c.79-.75.98-1.5.5-2.06z" fill="#fff"/><path fill="#f5f5f5" d="M323.58 71.62l-15.34 25.46 15.34 9.27V71.62z"/><path fill="#ebebeb" d="M308.24 97.08l15.34-6.88v16.15l-15.34-9.27zm15.34-25.46l15.34 25.46-15.34 9.27V71.62z"/><path fill="#e0e0e0" d="M338.92 97.08l-15.34-6.88v16.15l15.34-9.27z"/><path fill="#f5f5f5" d="M308.19 101.72l15.44 21.76-.05-12.56-15.39-9.2z"/><path fill="#ebebeb" d="M338.97 101.72l-15.45 21.76.06-12.56 15.39-9.2zM104.56 390.89h6.33v.25h-6.33z"/><ellipse cx="252.14" cy="415.69" rx="193.89" ry="11.32" fill="#f5f5f5"/><path d="M277.56 414.88H74a20.74 20.74 0 01-6.25-26.94 11.68 11.68 0 014-4.46 20.53 20.53 0 01-1.92-14c1.06-4.47 4.76-7.5 8.58-9.94a68.66 68.66 0 019-47.38c8.58-13.94 22.73-23 38.29-27.41a42.87 42.87 0 0142-47.94 29.38 29.38 0 0112.65-21.18 28 28 0 0123.92-3.63 20.19 20.19 0 0110.8-14 19.54 19.54 0 0117.49.41c8.18-2.32 17.18 2.05 20.89 9.83s1.23 18.1-5.62 23.23c7.73 11.52 7.39 29.56-.82 40.73 4.52 1.22 6.48 7.7 7.15 12.42a67.52 67.52 0 01-6.68 40.05c8.34-.4 16.41 5.82 21.38 12.66a26.89 26.89 0 013.53 24.24c4.84-.3 8.95 3.53 11.33 7.82a33.94 33.94 0 013.38 11.37 5.68 5.68 0 01.43 1.24c2.59 11.38-1.4 24.91-9.97 32.88z" fill="#407bff"/><path d="M277.56 414.88H74a20.74 20.74 0 01-6.25-26.94 11.68 11.68 0 014-4.46 20.53 20.53 0 01-1.92-14c1.06-4.47 4.76-7.5 8.58-9.94a68.66 68.66 0 019-47.38c8.58-13.94 22.73-23 38.29-27.41a42.87 42.87 0 0142-47.94 29.38 29.38 0 0112.65-21.18 28 28 0 0123.92-3.63 20.19 20.19 0 0110.8-14 19.54 19.54 0 0117.49.41c8.18-2.32 17.18 2.05 20.89 9.83s1.23 18.1-5.62 23.23c7.73 11.52 7.39 29.56-.82 40.73 4.52 1.22 6.48 7.7 7.15 12.42a67.52 67.52 0 01-6.68 40.05c8.34-.4 16.41 5.82 21.38 12.66a26.89 26.89 0 013.53 24.24c4.84-.3 8.95 3.53 11.33 7.82a33.94 33.94 0 013.38 11.37 5.68 5.68 0 01.43 1.24c2.59 11.38-1.4 24.91-9.97 32.88z" fill="#fff" opacity=".6"/><path d="M228.72 181.62l62.91-10.21a1.27 1.27 0 011.37 1.72l-23.93 59.07a1.25 1.25 0 01-2.15.31l-39-48.86a1.26 1.26 0 01.8-2.03z" fill="#407bff"/><path d="M228.72 181.62l62.91-10.21a1.27 1.27 0 011.37 1.72l-23.93 59.07a1.25 1.25 0 01-2.15.31l-39-48.86a1.26 1.26 0 01.8-2.03z" fill="#fff" opacity=".2"/><path d="M233.21 205.45l3.92-5.07-3.41-4.28-5.82 2.7a11.08 11.08 0 005.31 6.65z" fill="#263238"/><path d="M233.72 196.1l-1.37.63a11.12 11.12 0 003.86 4.84l.92-1.19z" fill="#fff" opacity=".2"/><path d="M230.89 197.41l-1.09.51a12.69 12.69 0 004.69 5.87l.73-.95a18.07 18.07 0 01-4.33-5.43z" fill="#fff" opacity=".4"/><path d="M239.37 202.48a15 15 0 01-7.21-9l36.17-28.86a19.63 19.63 0 0114.51-4.18 19.61 19.61 0 01-7.3 13.21z" fill="#407bff"/><path d="M268.33 164.59l-34.09 27.21a17.61 17.61 0 007.2 9l34.1-27.21a19.61 19.61 0 007.3-13.21 19.63 19.63 0 00-14.51 4.21z" fill="#407bff"/><path d="M268.33 164.59l-34.09 27.21a17.61 17.61 0 007.2 9l34.1-27.21a19.61 19.61 0 007.3-13.21 19.63 19.63 0 00-14.51 4.21z" fill="#fff" opacity=".5"/><path d="M268.33 164.59l-1.56 1.25a21 21 0 007.2 9l1.57-1.25a19.61 19.61 0 007.3-13.21 19.63 19.63 0 00-14.51 4.21z" fill="#407bff"/><path d="M268.33 164.59l-1.56 1.25a21 21 0 007.2 9l1.57-1.25a19.61 19.61 0 007.3-13.21 19.63 19.63 0 00-14.51 4.21z" fill="#fff" opacity=".2"/><path d="M252.22 227.77l3.92-5.08-3.41-4.27-5.81 2.7a11.06 11.06 0 005.3 6.65z" fill="#263238"/><path d="M252.73 218.42l-1.36.63a11 11 0 003.86 4.83l.91-1.19z" fill="#fff" opacity=".2"/><path d="M249.91 219.73l-1.09.5a12.64 12.64 0 004.68 5.88l.74-1a17.92 17.92 0 01-4.33-5.38z" fill="#fff" opacity=".4"/><path d="M258.39 224.8a15.07 15.07 0 01-7.21-9l36.17-28.86a19.68 19.68 0 0114.51-4.19 19.73 19.73 0 01-7.3 13.22z" fill="#407bff"/><path d="M287.35 186.91l-34.1 27.2a17.64 17.64 0 007.21 9l34.1-27.2a19.73 19.73 0 007.3-13.22 19.68 19.68 0 00-14.51 4.22z" fill="#407bff"/><path d="M287.35 186.91l-34.1 27.2a17.64 17.64 0 007.21 9l34.1-27.2a19.73 19.73 0 007.3-13.22 19.68 19.68 0 00-14.51 4.22z" fill="#fff" opacity=".5"/><path d="M287.35 186.91l-1.56 1.24a21 21 0 007.2 9l1.57-1.25a19.73 19.73 0 007.3-13.22 19.68 19.68 0 00-14.51 4.23z" fill="#407bff"/><path d="M287.35 186.91l-1.56 1.24a21 21 0 007.2 9l1.57-1.25a19.73 19.73 0 007.3-13.22 19.68 19.68 0 00-14.51 4.23z" fill="#fff" opacity=".2"/><path d="M242.09 220.44l6.34-8.18-5.51-6.91-9.39 4.36a17.84 17.84 0 008.56 10.73z" fill="#263238"/><path d="M242.92 205.35l-2.2 1a17.83 17.83 0 006.22 7.8l1.49-1.91z" fill="#fff" opacity=".2"/><path d="M238.36 207.47l-1.77.82a20.48 20.48 0 007.57 9.48l1.19-1.54a29 29 0 01-6.99-8.76z" fill="#fff" opacity=".4"/><path d="M252 215.65a24.3 24.3 0 01-11.63-14.58l58.39-46.59a31.77 31.77 0 0123.42-6.75 31.73 31.73 0 01-11.78 21.33z" fill="#407bff"/><path d="M298.8 154.48l-55 43.92a28.45 28.45 0 0011.59 14.6l55.05-43.92a31.73 31.73 0 0011.78-21.33 31.77 31.77 0 00-23.42 6.73z" fill="#407bff"/><path d="M298.8 154.48l-55 43.92a28.45 28.45 0 0011.59 14.6l55.05-43.92a31.73 31.73 0 0011.78-21.33 31.77 31.77 0 00-23.42 6.73z" fill="#fff" opacity=".6"/><path d="M298.8 154.48l-2.52 2a33.91 33.91 0 0011.63 14.58l2.53-2a31.73 31.73 0 0011.78-21.33 31.77 31.77 0 00-23.42 6.75z" fill="#407bff"/><path d="M298.8 154.48l-2.52 2a33.91 33.91 0 0011.63 14.58l2.53-2a31.73 31.73 0 0011.78-21.33 31.77 31.77 0 00-23.42 6.75z" fill="#fff" opacity=".2"/><path d="M296.33 175.34a5.43 5.43 0 11.86-7.64 5.44 5.44 0 01-.86 7.64z" fill="#407bff"/><path d="M288.69 174.48a5.43 5.43 0 01.55-7.36 3.43 3.43 0 00-.33.24 5.43 5.43 0 106.78 8.49l.3-.27a5.43 5.43 0 01-7.3-1.1z" fill="#407bff"/><path d="M288.69 174.48a5.43 5.43 0 01.55-7.36 3.43 3.43 0 00-.33.24 5.43 5.43 0 106.78 8.49l.3-.27a5.43 5.43 0 01-7.3-1.1z" opacity=".3"/><path d="M295.33 174.09a3.84 3.84 0 11.61-5.39 3.82 3.82 0 01-.61 5.39z" fill="#fff"/><path d="M289.83 173.32l6.76-3.39a3.84 3.84 0 00-.6-1.15l-6.74 3.37a4 4 0 00.58 1.17zm1.05.99l5.88-2.94a3.47 3.47 0 000-.72l-6.43 3.22a4 4 0 00.55.44z" fill="#407bff"/><path d="M289.83 173.32l6.76-3.39a3.84 3.84 0 00-.6-1.15l-6.74 3.37a4 4 0 00.58 1.17zm1.05.99l5.88-2.94a3.47 3.47 0 000-.72l-6.43 3.22a4 4 0 00.55.44z" opacity=".7" fill="#fff"/><path fill="#407bff" d="M308.52 234.34h53.74v180.4h-53.74z"/><path opacity=".2" d="M308.39 234.32h15.18v180.32h-15.18z"/><path fill="#407bff" d="M64.89 364.57h53.74v50.18H64.89z"/><path opacity=".2" d="M64.39 364.52h15.18v50.13H64.39z"/><path fill="#407bff" d="M142.91 321.16h53.74v93.58h-53.74z"/><path opacity=".2" d="M142.54 321.12h15.18v93.53h-15.18z"/><path fill="#407bff" d="M226.49 277.75h53.74v136.99h-53.74z"/><path opacity=".2" d="M226.24 277.72h15.18v136.93h-15.18z"/><path fill="#407bff" d="M386.54 190.93h53.74v223.81h-53.74z"/><path opacity=".2" d="M386.54 190.93h15.18v223.72h-15.18z"/><path fill="#ff8b7b" d="M171.92 291.84l-4.44 15.15 6.54 1.53 4.98-14.5-7.08-2.18z"/><path d="M175.49 306.77l-7.49-1.45a.64.64 0 00-.69.4l-2.69 6.3a1.09 1.09 0 00.49 1.44l.21.07c2.72.47 5.17.77 8.55 1.42 4 .77 2.87 1.09 7.55 2.06 2.81.58 4-2.76 2.87-3.16-5.34-1.79-5.55-3.67-7.24-6.18a2.37 2.37 0 00-1.56-.9zm-38.94-113.82l25.81 15.8-27.04 4.74 1.23-20.54z" fill="#263238"/><path d="M177.92 301.36l-9.32-1.67s3.47-12.92 7.23-30.58c.58-2.72 8.07-23.42 8.07-23.42s-37-17.34-37.59-17.53c-.47-.15-3.5-.38-8.23-4.08-8.8-6.88-6-20.34-6-20.34l23 .55c22.45 12 41.94 29.53 44.57 36.71 3.7 10.11-21.73 60.36-21.73 60.36z" fill="#263238"/><path fill="#ff8b7b" d="M85.57 285.09l-15.37 3.62 1.91 6.45 15.06-2.84-1.6-7.23z"/><path d="M74.35 295.56l-2.46-7.26a.66.66 0 00-.69-.41l-6.81.78a1.08 1.08 0 00-1 1.14.78.78 0 000 .21c.94 2.6 1.88 4.88 3 8.14 1.31 3.85.48 3 2 7.58.88 2.74 4.39 2.14 4.16.93-1.08-5.52.45-6.63 1.8-9.34a2.36 2.36 0 000-1.77zm5.91-.56l-3.15-8.92L126 258.83s-3.19-40.71-3.34-41.34-1.4-3.23-.52-9.18c1.63-11 14.69-15.29 14.69-15.29L148 216.59s-5.19 47.78-10.13 53.61c-6.95 8.21-57.61 24.8-57.61 24.8z" fill="#263238"/><path opacity=".2" d="M146.31 228.16l-8.23-4.08 6.34 19.52 1.89-15.44z"/><path d="M166 164.08c-4.24.91-8.5 1.72-12.76 2.51l-3.2.58-2.85.49a6.77 6.77 0 00-3.28 1.74l-4.49 4.6c-1.5 1.56-3 3.12-4.53 4.65-3 3.08-6.1 6.15-9.22 9.17a2.75 2.75 0 01-4.16-3.56c2.48-3.55 5-7 7.6-10.52 1.27-1.76 2.57-3.48 3.87-5.2l4-5.27a15.91 15.91 0 017.53-5.05l3.46-.94 3.12-.82c4.17-1.06 8.33-2.12 12.52-3.08a5.5 5.5 0 012.39 10.69z" fill="#407bff"/><path d="M166 164.08c-4.24.91-8.5 1.72-12.76 2.51l-3.2.58-2.85.49a6.77 6.77 0 00-3.28 1.74l-4.49 4.6c-1.5 1.56-3 3.12-4.53 4.65-3 3.08-6.1 6.15-9.22 9.17a2.75 2.75 0 01-4.16-3.56c2.48-3.55 5-7 7.6-10.52 1.27-1.76 2.57-3.48 3.87-5.2l4-5.27a15.91 15.91 0 017.53-5.05l3.46-.94 3.12-.82c4.17-1.06 8.33-2.12 12.52-3.08a5.5 5.5 0 012.39 10.69z" opacity=".1"/><path d="M120.66 184.2l-6.6 2.56 6 5.78 5-4a1.31 1.31 0 00.17-1.9 6.71 6.71 0 00-4.57-2.44zm-6.6 2.56l-1 1.92a2.23 2.23 0 00.58 2.81l2.12 1.66a2.22 2.22 0 002.27.29l2-.9z" fill="#ff8b7b"/><path d="M84.42 212.93l-2.43-.4 1.51-1.83 30.41-10.92c4.84-1.74 8-5 5.5-10.92-2.31-5.5-7.51-7.13-12.34-5.41l-30.41 10.79-2.46-.46 1.53-1.78 30.42-10.77c5.62-2 11-1.54 14.69 7.1s-.38 11.61-6 13.63zm9.01-33l-.67-1.51a6.81 6.81 0 00-8.18-3.76l-22.43 6.74 4 9.91z" fill="#263238"/><path d="M93.43 179.93l-.67-1.51a6.81 6.81 0 00-8.18-3.76l-22.43 6.74 4 9.91z" fill="#fff" opacity=".2"/><path d="M85.72 216.49l-.93-2.23 29.49-13c4.69-2.06 7.71-5.63 5.23-11.52-2.31-5.51-7.39-6.88-12.08-4.84l-29.49 12.86-.94-2.22 29.49-12.83c5.46-2.37 10.75-2.22 14.39 6.44s-.23 11.93-5.68 14.33z" fill="#263238"/><path d="M82.36 230.42l-18.18-43.94 22-9.39a5.43 5.43 0 017.21 2.84l13.35 31.94a7.32 7.32 0 01-3.83 9.44z" fill="#263238"/><path d="M85.72 216.49l-2.37-.28 1.44-2 29.49-13c4.69-2.06 7.71-5.63 5.23-11.52-2.31-5.51-7.39-6.88-12.08-4.84l-29.49 12.91-2.4-.33 1.46-1.89 29.49-12.83c5.46-2.37 10.75-2.22 14.39 6.44s-.23 11.93-5.68 14.33z" fill="#fff" opacity=".3"/><path fill="#263238" d="M89.61 193.41l-1.52-3.65 1.36-.6 1.53 3.66-1.37.59zm-8.86 3.87l-1.53-3.67 1.37-.6 1.53 3.67-1.37.6zm16.7 14.93l-1.53-3.68 1.36-.6 1.53 3.67-1.36.61zm-8.87 3.91l-1.53-3.68 1.37-.61 1.53 3.68-1.37.61zm111.89-68.73c.29.14.35.61.13 1s-.62.68-.9.54-.34-.61-.13-1.05.62-.64.9-.49z"/><path d="M200.27 147.73a1.6 1.6 0 001.09-.18 1.43 1.43 0 01-1.05-.32.55.55 0 01-.04.5z" fill="#263238"/><path d="M197.78 151.9a2.81 2.81 0 002.28.64 17.67 17.67 0 01-.25-4.76z" fill="#ff5652"/><path d="M198.89 145.15a2.26 2.26 0 012 .5l.06.07a.29.29 0 00.41-.06.28.28 0 00-.06-.4 2.79 2.79 0 00-2.49-.7.27.27 0 00-.17.1.3.3 0 000 .41.32.32 0 00.25.08z" fill="#263238"/><path d="M178.93 165.59c-6.48-5-4.7-9.28-4.7-9.28 3.39-.36 6.19-3.71 8.19-7.08a9.22 9.22 0 00.47 3.33c.73 2.22 5.34 3.23 5.34 3.23s-.45.57-1 1.42c-1.48 2.09-3.81 5.95-2.42 7.93-.05 0 1.25 5.96-5.88.45z" fill="#ff8b7b"/><path d="M187.92 156.39c-.3.24-.6.48-.89.76a.15.15 0 01-.1 0 7.45 7.45 0 01-4-4.55 9.06 9.06 0 01-.47-3.34c.52-.85 1-1.72 1.38-2.52l4 9.34z" fill="#ff8b7b"/><path d="M196.66 154.78a8.33 8.33 0 01-7.48 3 7 7 0 01-2.11-.58.15.15 0 01-.1 0 7.45 7.45 0 01-4-4.55 9.06 9.06 0 01-.47-3.34c.11-2.72 1.4-5.43 3.06-9.38a8.15 8.15 0 0113.68-2.34c4.12 4.63.94 12.93-2.58 17.19z" fill="#ff8b7b"/><path d="M188.73 157.6a4.21 4.21 0 01-1.55-.39c.6-.85 1.06-1.41 1-1.42l1.23-1.36s-1.02 2.9-.68 3.17z" opacity=".2"/><path d="M201.88 144.69c-1.17.42-3.37-.18-3.16-.32.82-.47 1.81-1.83.72-2.2-.18.72-2.61 5.24-3.31 5.46-.38.13-3 3.16-6.61 4.89-2.83 1.38-3.38 2.07-3.38 2.07l-5-2.61c-1.48-1.5-5.05-14.93 2.52-17.49 2.48-.84 4.38-2.94 8.32-1.81 2.43.7 5.28.27 7.67 1.1a7.83 7.83 0 015.24 5.07c.27 1.2-.05 4.8-3.01 5.84z" fill="#263238"/><path d="M197.32 145.77c1 1.46.17 4-.77 5.32s-2.67 1.59-3.15-.31a6.82 6.82 0 01.39-4.32c.75-1.62 2.49-2.15 3.53-.69z" fill="#ff8b7b"/><path d="M170.56 157.17s3.43-2.29 5.7-2.07 8.08 6.44 8.8 7.66-.13 4.43-.13 4.43z" fill="#407bff"/><path d="M170.56 157.17s3.43-2.29 5.7-2.07 8.08 6.44 8.8 7.66-.13 4.43-.13 4.43z" fill="#fff" opacity=".3"/><path d="M186.68 167.77a28.39 28.39 0 00-2.16-2.38 117.8 117.8 0 00-10.72-8.29 29.65 29.65 0 00-4.28-2.33 6.77 6.77 0 00-8.44 2.34c-5.17 7.64-6.39 13.57-9.83 18.57a97.48 97.48 0 01-15.62 17.42l4.28 4.58a62.71 62.71 0 0022.45 11.07s7.79-12.44 12.26-15.61c12.21-8.67 11.48-12.14 13.38-15.89a8.41 8.41 0 00-1.32-9.48z" fill="#407bff"/><path d="M188 177.26c-.68 1.33-1 2.65-1.75 4.18a21.54 21.54 0 01-5.63 7 66.2 66.2 0 01-6 4.71 29 29 0 00-5 5.3 6.43 6.43 0 00-.4 7.35c3.17 5.17 8 12.55 8 12.55-3.44-.9-4.84-1.27-10.31.46-8.56 2.7-26.51.32-31.57-6.91a23.25 23.25 0 016.22-8.8 47.27 47.27 0 00-8.57 7.28c-2.26.47-4.55-.77-6.18-2.38s-2.85-3.63-4.42-5.3-3.29-3.25-5.58-3.05c3-4 8.07-5.64 12.84-7 3.56-1 8.1-2.5 11.5-4.75a89.12 89.12 0 0010.13-12.19c3.43-5 4.64-10.93 9.83-18.58a6.76 6.76 0 018.44-2.34 29.81 29.81 0 014.28 2.34 120.27 120.27 0 0110.71 8.27 30.09 30.09 0 012.16 2.39 8.44 8.44 0 011.3 9.47z" fill="#407bff"/><path d="M235.31 164.21l5.15-2.23a3 3 0 00.6-.35l2.32-1.81a1 1 0 00.35-1.08l-2.35-3.74a1.15 1.15 0 00-1.28-.86l-3.48 1.3a1.65 1.65 0 00-.68.46l-3.49 3.8a1.27 1.27 0 00-.17 1.28l1.54 2.44a1.23 1.23 0 001.49.79z" fill="#ff8b7b"/><path d="M180.61 188.42l2.22-12.1 4.7 2.53c-1.66 4.39-3.61 6.63-6.92 9.57z" opacity=".2"/><path d="M214.58 180.06c6.42-4.46 14.48-10.76 20.36-15.83.55-1.94-1.28-4.49-3.14-3.71-4.63 1.94-18.46 9.61-20.9 9.68-1.68.05-19-2.45-24.66-3.27a4.63 4.63 0 00-3.23.69c-3.13 2.12-3.93 4.44-3.75 6.48a6.64 6.64 0 006.21 5.86c7.91.59 19.77 1.25 24.39 1.45a7.62 7.62 0 004.72-1.35z" fill="#407bff"/><path d="M192.87 149.63c-1.82 5.23-4.26 15.21-8.27 19s-9.64 4-15 5.26c-1.29.32-2.94 1.95-2.92 1.69a9.71 9.71 0 00-2.41 5.32l-5.83-4.55a4.27 4.27 0 01-1.4-1.53 3.58 3.58 0 01.65-3.33 18.19 18.19 0 001.76-3.89 12.44 12.44 0 00-4.34 6c-2.84-1-6.16-3.39-6.22-6.41a8.53 8.53 0 012.71-6.39 10.79 10.79 0 00-4.6 4.71c-.61-1.79-2.1-3.57-4-3.51a41 41 0 015.55-9c2.34-2.63 5.53-4.7 9-4.94 2.68-.19 5.31.68 7.87 1.49s5.22 1.6 7.88 1.26 5.4-4.42 5.9-7.06c3.8-2.18 9.14 3.18 13.67 5.88z" fill="#263238"/><path d="M210.59 144.87A19.62 19.62 0 01190 163.46h-.07a19.43 19.43 0 01-2.43-.3 38.29 38.29 0 00-14.91-12.5 19.1 19.1 0 01-.68-2.3 19.61 19.61 0 1138.68-3.49z" opacity=".2"/><path d="M197.65 162.34a19.61 19.61 0 01-7.64 1.12h-.07a19.14 19.14 0 01-2.44-.3 38.22 38.22 0 00-14.91-12.5 17.44 17.44 0 01-.68-2.3 19.6 19.6 0 0114.81-23.63 8.54 8.54 0 012.94 2.42 16.36 16.36 0 012.86 7.94 41.18 41.18 0 01-.3 12.92 15 15 0 00.82 8.73c1.96 4.44 4.61 5.6 4.61 5.6z" fill="#407bff"/><path d="M197.65 162.34a19.61 19.61 0 01-7.64 1.12h-.07a19.14 19.14 0 01-2.44-.3 38.22 38.22 0 00-14.91-12.5 17.44 17.44 0 01-.68-2.3 19.6 19.6 0 0114.81-23.63 8.54 8.54 0 012.94 2.42 16.36 16.36 0 012.86 7.94 41.18 41.18 0 01-.3 12.92 15 15 0 00.82 8.73c1.96 4.44 4.61 5.6 4.61 5.6z" fill="#fff" opacity=".4"/><path d="M189.69 164.9a.89.89 0 01-1.28-.09c-.32-.52-.66-1-1-1.54a38.09 38.09 0 00-14.72-12.72c-.61-.31-1.22-.59-1.83-.86s-.45-1 0-1.41a1 1 0 011.17 0 .83.83 0 01.33.34 44.72 44.72 0 0117.49 15 1 1 0 01-.16 1.28z" fill="#407bff"/><path d="M193.8 145.52a1.73 1.73 0 11-1.73-1.73 1.73 1.73 0 011.73 1.73z" fill="#263238"/><path d="M194.38 146a1.74 1.74 0 11-1.73-1.73 1.74 1.74 0 011.73 1.73z" fill="#407bff"/><path d="M194.38 146a1.74 1.74 0 11-1.73-1.73 1.74 1.74 0 011.73 1.73z" fill="#fff" opacity=".7"/><path d="M438.31 104.13a24.55 24.55 0 01-24.55 24.55c-.55 0-1.09 0-1.64-.06a24.55 24.55 0 010-49h1.64a24.55 24.55 0 0124.55 24.51z" fill="#407bff"/><path d="M435 104.13a23 23 0 11-22.91-24.5 24.54 24.54 0 0122.91 24.5z" fill="#fff" opacity=".2"/><circle cx="412.07" cy="104.13" r="18.37" transform="rotate(-67.5 412.07 104.123)" fill="#fff" opacity=".4"/><circle cx="412.13" cy="103.99" r="13.57" transform="rotate(-13.28 412.21 104.013)" fill="#fff" opacity=".4"/><path d="M416.56 104.13a5.3 5.3 0 11-5.3-5.3 5.29 5.29 0 015.3 5.3z" fill="#263238"/><path fill="#407bff" d="M374.44 122.34l4.91.8 7.2-4.25v-.01l-3.67-1.62-8.44 5.08z"/><path fill="#263238" d="M379.165 122.8l29.242-17.308.372.628-29.242 17.308z"/><path fill="#407bff" d="M378.72 127.53l7.1-4.21.73-4.43-7.2 4.25-.63 4.39z"/><path opacity=".2" d="M378.72 127.53l7.1-4.21.73-4.43-7.2 4.25-.63 4.39z"/><path fill="#fff" d="M410.49 103.86l-4.88 1.25 4.45 2.45 2.01-3.19-1.58-.51z"/><path d="M413 72.78a1.81 1.81 0 01-1.86-1.78v-8a1.82 1.82 0 113.64 0v8a1.81 1.81 0 01-1.78 1.78zm0 74.39a1.81 1.81 0 01-1.82-1.82v-8a1.82 1.82 0 113.64 0v8a1.81 1.81 0 01-1.82 1.82zm-33.12-42.36h-8.05a1.83 1.83 0 110-3.65h8.05a1.83 1.83 0 110 3.65zm75.26 0h-8.06a1.83 1.83 0 010-3.65h8.06a1.83 1.83 0 010 3.65z" fill="#407bff"/></svg>