<svg width="800" height="800" viewBox="0 0 24 24" fill="none" xmlns="http://www.w3.org/2000/svg" stroke="#000" stroke-width=".84"><g fill="#1C274C"><path fill-rule="evenodd" clip-rule="evenodd" d="M17.184 6.692a.75.75 0 00-1.368 0l-4.5 10a.75.75 0 001.368.616l1.438-3.194h4.757l1.437 3.194a.75.75 0 001.368-.616l-4.5-10zM16.5 8.828l-1.704 3.786h3.408L16.5 8.828z"/><path opacity=".5" fill-rule="evenodd" clip-rule="evenodd" d="M2.25 7A.75.75 0 013 6.25h10a.75.75 0 010 1.5H3A.75.75 0 012.25 7z"/><path opacity=".5" d="M2.25 12a.75.75 0 01.75-.75h7a.75.75 0 010 1.5H3a.75.75 0 01-.75-.75zm0 5a.75.75 0 01.75-.75h5a.75.75 0 010 1.5H3a.75.75 0 01-.75-.75z"/></g></svg>